<svg viewBox="0 0 100 100" xmlns="http://www.w3.org/2000/svg">
  <defs>
    <linearGradient id="boxGrad" x1="0%" y1="0%" x2="0%" y2="100%">
      <stop offset="0%" style="stop-color:#DC143C"/>
      <stop offset="50%" style="stop-color:#B22222"/>
      <stop offset="100%" style="stop-color:#8B0000"/>
    </linearGradient>
    <linearGradient id="fryGrad" x1="0%" y1="0%" x2="100%" y2="0%">
      <stop offset="0%" style="stop-color:#FFD700"/>
      <stop offset="50%" style="stop-color:#FFA500"/>
      <stop offset="100%" style="stop-color:#FF8C00"/>
    </linearGradient>
  </defs>
  <!-- Fries container back -->
  <path d="M22 48 L78 48 L72 88 L28 88 Z" fill="url(#boxGrad)"/>
  <!-- Container side fold -->
  <path d="M25 52 L75 52 L70 84 L30 84 Z" fill="#8B0000"/>
  <!-- Container front highlight -->
  <path d="M32 58 L68 58 L65 78 L35 78 Z" fill="#FFD700"/>
  <!-- Logo on container -->
  <circle cx="50" cy="68" r="8" fill="#FF8C00"/>
  <path d="M46 65 L50 72 L54 64" stroke="#DC143C" stroke-width="2" fill="none" stroke-linecap="round" stroke-linejoin="round"/>
  <!-- French fries sticks with gradient -->
  <rect x="30" y="18" width="7" height="35" rx="1" fill="url(#fryGrad)"/>
  <rect x="40" y="12" width="7" height="42" rx="1" fill="url(#fryGrad)"/>
  <rect x="50" y="15" width="7" height="38" rx="1" fill="url(#fryGrad)"/>
  <rect x="60" y="10" width="7" height="45" rx="1" fill="url(#fryGrad)"/>
  <rect x="68" y="20" width="7" height="32" rx="1" fill="url(#fryGrad)"/>
  <!-- Fry crispy edges -->
  <rect x="31" y="20" width="5" height="3" fill="#F4A460" opacity="0.6"/>
  <rect x="41" y="14" width="5" height="3" fill="#F4A460" opacity="0.6"/>
  <rect x="51" y="17" width="5" height="3" fill="#F4A460" opacity="0.6"/>
  <rect x="61" y="12" width="5" height="3" fill="#F4A460" opacity="0.6"/>
  <rect x="69" y="22" width="5" height="3" fill="#F4A460" opacity="0.6"/>
  <!-- Fry salt grains -->
  <circle cx="33" cy="28" r="0.8" fill="white" opacity="0.7"/>
  <circle cx="43" cy="22" r="0.8" fill="white" opacity="0.7"/>
  <circle cx="53" cy="30" r="0.8" fill="white" opacity="0.7"/>
  <circle cx="63" cy="20" r="0.8" fill="white" opacity="0.7"/>
  <circle cx="71" cy="28" r="0.8" fill="white" opacity="0.7"/>
  <circle cx="37" cy="35" r="0.6" fill="white" opacity="0.6"/>
  <circle cx="57" cy="25" r="0.6" fill="white" opacity="0.6"/>
</svg>