<svg viewBox="0 0 100 100" xmlns="http://www.w3.org/2000/svg">
  <defs>
    <linearGradient id="carrotBody" x1="0%" y1="0%" x2="100%" y2="100%">
      <stop offset="0%" style="stop-color:#FF8C00"/>
      <stop offset="50%" style="stop-color:#FF7F00"/>
      <stop offset="100%" style="stop-color:#FF6347"/>
    </linearGradient>
    <radialGradient id="carrotHighlight" cx="30%" cy="30%" r="50%">
      <stop offset="0%" style="stop-color:#FFA500"/>
      <stop offset="100%" style="stop-color:#FF8C00"/>
    </radialGradient>
  </defs>
  <!-- Carrot body main -->
  <path d="M42 88 L32 48 Q50 42 68 48 L58 88 Q50 94 42 88" fill="url(#carrotBody)"/>
  <!-- Carrot highlight side -->
  <path d="M40 85 L32 50 Q42 47 52 50 L50 85 Q46 90 40 85" fill="url(#carrotHighlight)"/>
  <!-- Carrot texture rings -->
  <path d="M38 65 Q50 62 62 65" stroke="#FF6347" stroke-width="1" fill="none" opacity="0.5"/>
  <path d="M36 75 Q50 72 64 75" stroke="#FF6347" stroke-width="1" fill="none" opacity="0.5"/>
  <path d="M40 55 Q50 53 60 55" stroke="#FF6347" stroke-width="1" fill="none" opacity="0.5"/>
  <!-- Carrot greens stems -->
  <path d="M38 48 Q32 32 22 26" stroke="#228B22" stroke-width="4" fill="none" stroke-linecap="round"/>
  <path d="M46 46 Q46 28 42 18" stroke="#228B22" stroke-width="4" fill="none" stroke-linecap="round"/>
  <path d="M54 46 Q58 30 68 26" stroke="#228B22" stroke-width="4" fill="none" stroke-linecap="round"/>
  <!-- Leaf details -->
  <ellipse cx="22" cy="26" rx="4" ry="2" fill="#32CD32" transform="rotate(-30 22 26)"/>
  <ellipse cx="42" cy="18" rx="3" ry="2" fill="#32CD32"/>
  <ellipse cx="68" cy="26" rx="4" ry="2" fill="#32CD32" transform="rotate(30 68 26)"/>
  <!-- Peas scattered around -->
  <!-- Left peas -->
  <circle cx="18" cy="58" r="7" fill="#90EE90"/>
  <circle cx="18" cy="58" r="5" fill="#7CFC00"/>
  <circle cx="22" cy="72" r="6" fill="#90EE90"/>
  <circle cx="22" cy="72" r="4" fill="#7CFC00"/>
  <!-- Right peas -->
  <circle cx="82" cy="52" r="7" fill="#90EE90"/>
  <circle cx="82" cy="52" r="5" fill="#7CFC00"/>
  <circle cx="78" cy="68" r="6" fill="#90EE90"/>
  <circle cx="78" cy="68" r="4" fill="#7CFC00"/>
  <!-- Pea highlights -->
  <circle cx="16" cy="56" r="2" fill="#E0FFE0" opacity="0.6"/>
  <circle cx="20" cy="70" r="1.5" fill="#E0FFE0" opacity="0.6"/>
  <circle cx="80" cy="50" r="2" fill="#E0FFE0" opacity="0.6"/>
  <circle cx="76" cy="66" r="1.5" fill="#E0FFE0" opacity="0.6"/>
</svg>