<svg viewBox="0 0 100 100" xmlns="http://www.w3.org/2000/svg">
  <!-- Peas in a pod or scattered green peas -->
  <!-- Pod/container background shape -->
  <path d="M20 50 Q20 30 50 25 Q80 30 80 50 Q80 70 50 75 Q20 70 20 50" fill="#228B22"/>
  <path d="M25 50 Q25 35 50 32 Q75 35 75 50 Q75 65 50 68 Q25 65 25 50" fill="#32CD32"/>
  
  <!-- Individual peas visible -->
  <!-- Row 1 -->
  <circle cx="32" cy="42" r="7" fill="#90EE90"/>
  <circle cx="32" cy="42" r="5" fill="#7CFC00"/>
  <circle cx="50" cy="40" r="7" fill="#90EE90"/>
  <circle cx="50" cy="40" r="5" fill="#7CFC00"/>
  <circle cx="68" cy="42" r="7" fill="#90EE90"/>
  <circle cx="68" cy="42" r="5" fill="#7CFC00"/>
  
  <!-- Row 2 -->
  <circle cx="38" cy="58" r="7" fill="#90EE90"/>
  <circle cx="38" cy="58" r="5" fill="#7CFC00"/>
  <circle cx="56" cy="60" r="7" fill="#90EE90"/>
  <circle cx="56" cy="60" r="5" fill="#7CFC00"/>
  
  <!-- Loose peas outside -->
  <circle cx="22" cy="65" r="6" fill="#7CFC00"/>
  <circle cx="82" cy="35" r="5" fill="#7CFC00"/>
  <circle cx="78" cy="62" r="5" fill="#7CFC00"/>
  
  <!-- Highlight/shine on peas -->
  <circle cx="30" cy="40" r="2" fill="#E0FFE0" opacity="0.6"/>
  <circle cx="48" cy="38" r="2" fill="#E0FFE0" opacity="0.6"/>
  <circle cx="66" cy="40" r="2" fill="#E0FFE0" opacity="0.6"/>
  <circle cx="36" cy="56" r="2" fill="#E0FFE0" opacity="0.6"/>
  <circle cx="54" cy="58" r="2" fill="#E0FFE0" opacity="0.6"/>
</svg>