<svg viewBox="0 0 100 100" xmlns="http://www.w3.org/2000/svg">
  <defs>
    <linearGradient id="fishBody" x1="0%" y1="0%" x2="100%" y2="0%">
      <stop offset="0%" style="stop-color:#5F9EA0"/>
      <stop offset="50%" style="stop-color:#4682B4"/>
      <stop offset="100%" style="stop-color:#2F4F4F"/>
    </linearGradient>
    <linearGradient id="fishBelly" x1="0%" y1="0%" x2="0%" y2="100%">
      <stop offset="0%" style="stop-color:#B0C4DE"/>
      <stop offset="100%" style="stop-color:#87CEEB"/>
    </linearGradient>
  </defs>
  <!-- Fish body main -->
  <path d="M15 50 Q20 35 40 32 Q60 28 75 35 Q88 42 88 50 Q88 58 75 65 Q60 72 40 68 Q20 65 15 50" fill="url(#fishBody)"/>
  <!-- Fish belly -->
  <path d="M20 52 Q25 60 40 63 Q60 66 75 60 Q82 56 85 52 Q80 58 65 60 Q45 62 30 58 Q22 55 20 52" fill="url(#fishBelly)"/>
  <!-- Tail fin -->
  <path d="M85 50 L100 30 L100 70 Z" fill="#4682B4"/>
  <path d="M88 50 L98 35 L98 65 Z" fill="#5F9EA0"/>
  <!-- Dorsal fin -->
  <path d="M45 32 Q55 15 65 30 L62 32 Q55 22 48 32 Z" fill="#2F4F4F"/>
  <!-- Side fin -->
  <path d="M45 55 Q40 70 50 68 Q55 62 52 55 Z" fill="#5F9EA0"/>
  <!-- Pectoral fin -->
  <path d="M35 58 Q30 72 42 68" fill="#4682B4"/>
  <!-- Eye -->
  <circle cx="28" cy="45" r="6" fill="white"/>
  <circle cx="26" cy="45" r="4" fill="#FFD700"/>
  <circle cx="25" cy="45" r="2.5" fill="black"/>
  <circle cx="27" cy="43" r="1.5" fill="white" opacity="0.8"/>
  <!-- Gills -->
  <path d="M38 42 Q40 50 38 58" stroke="#2F4F4F" stroke-width="2" fill="none"/>
  <path d="M42 40 Q45 50 42 60" stroke="#2F4F4F" stroke-width="1.5" fill="none"/>
  <!-- Scales pattern -->
  <ellipse cx="50" cy="48" rx="4" ry="2" fill="none" stroke="#87CEEB" stroke-width="0.5"/>
  <ellipse cx="58" cy="45" rx="4" ry="2" fill="none" stroke="#87CEEB" stroke-width="0.5"/>
  <ellipse cx="58" cy="52" rx="4" ry="2" fill="none" stroke="#87CEEB" stroke-width="0.5"/>
  <ellipse cx="66" cy="48" rx="4" ry="2" fill="none" stroke="#87CEEB" stroke-width="0.5"/>
  <!-- Mouth -->
  <path d="M18 50 Q20 52 18 54" stroke="#2F4F4F" stroke-width="1.5" fill="none"/>
</svg>