<svg viewBox="0 0 100 100" xmlns="http://www.w3.org/2000/svg">
  <defs>
    <radialGradient id="bunGrad1" cx="40%" cy="30%" r="60%">
      <stop offset="0%" style="stop-color:#F4A460"/>
      <stop offset="70%" style="stop-color:#D2691E"/>
      <stop offset="100%" style="stop-color:#8B4513"/>
    </radialGradient>
    <radialGradient id="bunGrad2" cx="35%" cy="25%" r="65%">
      <stop offset="0%" style="stop-color:#F4A460"/>
      <stop offset="70%" style="stop-color:#D2691E"/>
      <stop offset="100%" style="stop-color:#8B4513"/>
    </radialGradient>
    <radialGradient id="bunGrad3" cx="45%" cy="35%" r="55%">
      <stop offset="0%" style="stop-color:#F4A460"/>
      <stop offset="70%" style="stop-color:#D2691E"/>
      <stop offset="100%" style="stop-color:#8B4513"/>
    </radialGradient>
  </defs>
  <!-- Bun 1 (left) - irregular organic shape -->
  <path d="M15 58 Q12 42 24 38 Q38 34 45 48 Q48 64 38 70 Q25 74 18 66 Q14 62 15 58" fill="url(#bunGrad1)"/>
  <!-- Bun 1 highlight -->
  <ellipse cx="28" cy="46" rx="8" ry="5" fill="#F5DEB3" opacity="0.4"/>
  <!-- Bun 1 scoring -->
  <path d="M22 52 Q28 50 34 54" stroke="#8B4513" stroke-width="2" fill="none" opacity="0.6"/>
  <path d="M20 58 Q26 56 32 60" stroke="#A0522D" stroke-width="1.5" fill="none" opacity="0.5"/>
  
  <!-- Bun 2 (right) - different proportions -->
  <path d="M55 55 Q52 38 66 36 Q82 34 86 50 Q88 68 74 72 Q62 76 56 64 Q54 58 55 55" fill="url(#bunGrad2)"/>
  <!-- Bun 2 highlight -->
  <ellipse cx="68" cy="46" rx="9" ry="6" fill="#F5DEB3" opacity="0.4"/>
  <!-- Bun 2 scoring -->
  <path d="M62 48 Q70 46 78 50" stroke="#8B4513" stroke-width="2" fill="none" opacity="0.6"/>
  <path d="M60 56 Q68 54 76 58" stroke="#A0522D" stroke-width="1.5" fill="none" opacity="0.5"/>
  
  <!-- Bun 3 (top) - smaller, rounder -->
  <path d="M35 35 Q32 20 46 18 Q64 16 70 30 Q74 44 60 48 Q46 52 38 40 Q36 36 35 35" fill="url(#bunGrad3)"/>
  <!-- Bun 3 highlight -->
  <ellipse cx="52" cy="28" rx="7" ry="5" fill="#F5DEB3" opacity="0.4"/>
  <!-- Bun 3 scoring -->
  <path d="M44 30 Q52 28 60 32" stroke="#8B4513" stroke-width="1.8" fill="none" opacity="0.6"/>
  
  <!-- Texture pores on all buns -->
  <circle cx="30" cy="58" r="1" fill="#8B4513" opacity="0.3"/>
  <circle cx="36" cy="62" r="0.8" fill="#8B4513" opacity="0.3"/>
  <circle cx="70" cy="58" r="1" fill="#8B4513" opacity="0.3"/>
  <circle cx="76" cy="62" r="0.8" fill="#8B4513" opacity="0.3"/>
  <circle cx="50" cy="38" r="0.8" fill="#8B4513" opacity="0.3"/>
</svg>